<?xml version="1.0" encoding="UTF-8"?>
<svg width="16px" height="16px" viewBox="0 0 16 16" version="1.1" xmlns="http://www.w3.org/2000/svg" xmlns:xlink="http://www.w3.org/1999/xlink" preserveAspectRatio="xMidYMid">
    <g>
        <path d="M11.0327273,7.99999997 L15.5813637,3.45136363 C16.1395454,2.89318181 16.1395454,1.98818181 15.5813637,1.42954545 L14.5704545,0.418636362 C14.0122727,-0.139545454 13.1072727,-0.139545454 12.5486363,0.418636362 L7.99999999,4.96727272 L3.45136363,0.418636362 C2.89318182,-0.139545454 1.98818182,-0.139545454 1.42954545,0.418636362 L0.418636363,1.42954545 C-0.139545455,1.98772727 -0.139545455,2.89272727 0.418636363,3.45136363 L4.96727272,7.99999997 L0.418636363,12.5486364 C-0.139545455,13.1068182 -0.139545455,14.0118182 0.418636363,14.5704546 L1.42954545,15.5813636 C1.98772727,16.1395454 2.89318182,16.1395454 3.45136363,15.5813636 L7.99999999,11.0327272 L12.5486363,15.5813636 C13.1068182,16.1395454 14.0122727,16.1395454 14.5704545,15.5813636 L15.5813637,14.5704546 C16.1395454,14.0122727 16.1395454,13.1072727 15.5813637,12.5486364 L11.0327273,7.99999997 Z" fill="currentColor"></path>
    </g>
</svg>
